<svg version="1.0" xmlns="http://www.w3.org/2000/svg" viewBox="0 0 166.000000 195.000000" preserveAspectRatio="xMidYMid meet" class="w-8 fill-current m-2">

  <g transform="translate(0.000000,195.000000) scale(0.100000,-0.100000)">
    <path d="M1476 1929 c-131 -31 -292 -160 -372 -299 -43 -75 -46 -78 -105 -100
-33 -12 -69 -29 -79 -38 -25 -21 -69 -197 -53 -213 8 -8 26 -3 65 15 56 26 98
31 180 20 l45 -6 11 -63 c7 -34 12 -90 12 -123 0 -33 5 -64 10 -67 10 -6 107
52 160 96 23 19 25 30 28 110 2 49 7 89 11 89 13 0 112 140 136 193 50 109 67
232 50 350 -8 52 -17 55 -99 36z m-92 -209 c30 -11 66 -64 61 -88 -2 -10 -4
-22 -4 -28 -1 -6 -12 -23 -26 -38 -28 -30 -87 -36 -122 -11 -34 24 -47 77 -29
114 28 54 68 71 120 51z"></path>
    <path d="M64 1745 c3 -8 132 -198 287 -422 154 -223 283 -412 286 -419 2 -6
-135 -205 -304 -440 -170 -236 -312 -435 -316 -442 -7 -9 30 -12 170 -12 l178
0 229 320 c125 176 231 322 235 324 4 3 110 -140 237 -317 l230 -322 177 -3
c97 -1 177 0 177 3 0 3 -132 188 -293 413 -161 224 -303 421 -315 439 l-23 32
52 75 53 75 -13 83 c-21 140 -11 128 -103 128 -87 0 -100 -8 -149 -87 -11 -18
-24 -33 -27 -33 -4 0 -101 140 -216 310 l-209 310 -174 0 c-151 0 -174 -2
-169 -15z"></path>
  </g>
</svg>